<svg
	version="1.0"
	xmlns="http://www.w3.org/2000/svg"
	width="500.000000pt"
	height="500.000000pt"
	viewBox="0 0 500.000000 500.000000"
	preserveAspectRatio="xMidYMid meet"
	fill="#f7df1e"
>
	<g
		transform="translate(0.000000,500.000000) scale(0.100000,-0.100000)"
		<!-- fill="#000000" -->
		stroke="none"
	>
		<path d="M4080 2309 c-116 -20 -228 -92 -288 -187 -50 -78 -65 -149 -59 -271 3 -58 9 -116 12 -128 l7 -23 -136 0 -136 0 0 283 c0 207 -3 286 -12 295 -8 8 -56 12 -150 12 l-138 0 -10 -26 c-6 -14 -10 -144 -10 -295 l0 -269 -310 0 c-200 0 -310 -4 -310 -10 0 -7 385 -10 1135 -10 750 0 1135 3 1135 10 0 6 -123 10 -349 10 l-349 0 -36 42 c-58 67 -70 141 -36 216 34 76 131 94 191 36 31 -29 37 -51 47 -152 l7 -67 129 -3 c86 -2 133 1 142 9 17 14 19 120 4 199 -43 226 -249 367 -480 329z" />
		<path d="M2920 1471 c0 -54 -2 -61 -20 -61 -11 0 -20 -7 -20 -15 0 -23 47 -19 60 5 14 27 9 122 -7 128 -10 3 -13 -13 -13 -57z" />
		<path d="M3070 1455 l0 -75 35 0 c24 0 35 5 35 15 0 8 -9 15 -20 15 -27 0 -26 26 1 33 23 6 17 27 -7 27 -8 0 -14 7 -14 15 0 8 9 15 20 15 11 0 20 7 20 15 0 10 -11 15 -35 15 l-35 0 0 -75z" />
		<path d="M3270 1456 c0 -61 3 -76 15 -76 10 0 15 10 15 30 0 17 5 30 10 30 6 0 10 -13 10 -30 0 -20 5 -30 15 -30 12 0 15 15 15 75 0 60 -3 75 -15 75 -10 0 -15 -10 -15 -30 0 -37 -18 -40 -22 -3 -2 14 -9 28 -15 31 -10 3 -13 -16 -13 -72z" />
		<path d="M3477 1524 c-4 -4 -7 -38 -7 -76 l0 -68 41 0 c43 0 52 22 11 28 -28 4 -29 32 -2 32 11 0 20 7 20 15 0 8 -9 15 -20 15 -28 0 -25 28 3 32 12 2 22 8 22 13 0 12 -57 19 -68 9z" />
		<path d="M3670 1510 c-12 -22 -8 -33 23 -67 11 -13 17 -26 13 -30 -4 -4 -11 -1 -15 6 -14 22 -33 3 -20 -20 7 -14 18 -19 37 -17 39 4 42 42 6 79 -15 16 -24 32 -19 36 4 5 10 2 12 -4 6 -17 33 -17 33 0 0 37 -53 49 -70 17z" />
		<path d="M3867 1523 c-4 -3 -7 -37 -7 -75 0 -54 3 -68 15 -68 9 0 15 9 15 24 0 37 19 42 26 7 4 -17 13 -31 20 -31 16 0 19 41 4 56 -8 8 -7 20 0 39 11 30 7 55 -9 55 -5 0 -12 -13 -16 -30 -4 -16 -11 -30 -16 -30 -5 0 -9 14 -9 30 0 29 -9 38 -23 23z" />
		<path d="M4070 1455 c0 -60 3 -75 15 -75 12 0 15 15 15 75 0 60 -3 75 -15 75 -12 0 -15 -15 -15 -75z" />
		<path d="M4230 1455 l0 -75 35 0 c24 0 35 5 35 15 0 8 -9 15 -20 15 -11 0 -20 7 -20 15 0 8 7 15 15 15 8 0 15 7 15 15 0 8 -7 15 -15 15 -8 0 -15 7 -15 15 0 8 9 15 20 15 11 0 20 7 20 15 0 10 -11 15 -35 15 l-35 0 0 -75z" />
		<path d="M4420 1455 l0 -75 35 0 c24 0 35 5 35 15 0 8 -9 15 -20 15 -18 0 -20 7 -20 60 0 47 -3 60 -15 60 -12 0 -15 -15 -15 -75z" />
		<path d="M2540 1215 c0 -13 41 -15 310 -15 l310 0 0 -97 c0 -80 -4 -104 -20 -130 -48 -79 -153 -83 -242 -8 -16 14 -38 25 -48 25 -21 0 -150 -159 -150 -185 0 -28 81 -104 144 -135 171 -83 387 -50 515 78 88 88 121 184 121 349 l0 103 383 -2 382 -3 23 -45 c29 -57 30 -133 2 -178 -50 -82 -181 -78 -225 7 -8 16 -18 64 -22 107 l-8 79 -120 3 c-175 4 -165 10 -165 -101 0 -216 89 -354 268 -419 84 -30 235 -29 317 2 114 43 197 118 243 219 21 45 27 75 30 156 2 56 -1 117 -6 138 l-10 37 119 0 c99 0 119 3 119 15 0 13 -133 15 -1135 15 -1002 0 -1135 -2 -1135 -15z" />
	</g>
</svg>
